<svg xmlns="http://www.w3.org/2000/svg" xmlns:xlink="http://www.w3.org/1999/xlink" viewBox="0 0 393.68 103.69"><defs><style>.cls-1{fill:url(#Adsız_degrade_4);}.cls-2{fill:url(#Adsız_degrade_4-2);}.cls-3{fill:url(#Adsız_degrade_4-3);}.cls-4{fill:url(#Adsız_degrade_4-4);}.cls-5{fill:url(#Adsız_degrade_4-5);}.cls-6{fill:url(#Adsız_degrade_4-6);}.cls-7{fill:url(#Adsız_degrade_4-7);}.cls-8{fill:url(#Adsız_degrade_4-8);}</style><linearGradient id="Adsız_degrade_4" x1="13.52" y1="61.71" x2="374.81" y2="-37.41" gradientUnits="userSpaceOnUse"><stop offset="0" stop-color="#d90429"/><stop offset="1" stop-color="#ef233c"/></linearGradient><linearGradient id="Adsız_degrade_4-2" x1="21.86" y1="92.09" x2="383.15" y2="-7.04" xlink:href="#Adsız_degrade_4"/><linearGradient id="Adsız_degrade_4-3" x1="26.66" y1="109.62" x2="387.96" y2="10.49" xlink:href="#Adsız_degrade_4"/><linearGradient id="Adsız_degrade_4-4" x1="32.29" y1="130.11" x2="393.58" y2="30.98" xlink:href="#Adsız_degrade_4"/><linearGradient id="Adsız_degrade_4-5" x1="35.34" y1="141.25" x2="396.64" y2="42.12" xlink:href="#Adsız_degrade_4"/><linearGradient id="Adsız_degrade_4-6" x1="35.39" y1="141.41" x2="396.68" y2="42.28" xlink:href="#Adsız_degrade_4"/><linearGradient id="Adsız_degrade_4-7" x1="0.56" y1="14.48" x2="361.85" y2="-84.65" xlink:href="#Adsız_degrade_4"/><linearGradient id="Adsız_degrade_4-8" x1="14.68" y1="65.95" x2="375.98" y2="-33.18" xlink:href="#Adsız_degrade_4"/></defs><g id="katman_2" data-name="katman 2"><g id="Layer_1" data-name="Layer 1"><rect class="cls-1" x="35.07" y="3.45" width="22.16" height="98.62"/><path class="cls-2" d="M120.12,32.43l-1.47,8.22a26.8,26.8,0,0,0-10.12-7.12,32.91,32.91,0,0,0-13-2.49,32.29,32.29,0,0,0-17.25,4.62A31.91,31.91,0,0,0,66.55,48.43,40,40,0,0,0,62.3,67.22a40.19,40.19,0,0,0,4.25,18.86A31.72,31.72,0,0,0,78.29,98.92a32.29,32.29,0,0,0,17.25,4.62c9.54,0,17.24-3.3,23.11-9.76l1.47,8.29h19.15V32.43Zm-7.34,47.63a16,16,0,0,1-12,4.84A15.49,15.49,0,0,1,88.86,80c-3.08-3.3-4.55-7.55-4.55-12.76s1.47-9.4,4.55-12.62a15.49,15.49,0,0,1,11.89-4.92,16,16,0,0,1,12,4.84c3.09,3.23,4.63,7.49,4.63,12.7S115.87,76.76,112.78,80.06Z"/><path class="cls-3" d="M216.47,62.81v39.34H194.31V64.06q0-6.83-3.3-10.57a12.13,12.13,0,0,0-9.32-3.81A13.58,13.58,0,0,0,171.19,54c-2.64,2.93-3.88,6.75-3.88,11.45v36.69H145.14V32.51H164.3l1.39,8.14a27.48,27.48,0,0,1,9.83-7.19,30.79,30.79,0,0,1,12.63-2.57c8.65,0,15.48,2.86,20.62,8.52S216.47,52.83,216.47,62.81Z"/><path class="cls-4" d="M289.7,92.09a38,38,0,0,1-27.88,11.6c-7.78,0-14.53-1.47-20.33-4.48a30.92,30.92,0,0,1-13.35-12.62c-3.23-5.43-4.77-11.89-4.77-19.15a36.84,36.84,0,0,1,4.84-19.08,32.15,32.15,0,0,1,13.36-12.84,42,42,0,0,1,19.81-4.63,40.36,40.36,0,0,1,14.82,2.79,38,38,0,0,1,12.62,8.15L276.5,55.18a19.7,19.7,0,0,0-13.95-5.5,16.75,16.75,0,0,0-12.4,4.84,17.7,17.7,0,0,0-4.84,12.77c0,5.21,1.61,9.54,4.77,12.77s7.26,4.84,12.47,4.84a20,20,0,0,0,14.68-6Z"/><rect class="cls-5" x="293.74" y="32.51" width="22.09" height="69.64"/><polygon class="cls-6" points="393.68 102.14 366.31 102.14 345.03 74.48 345.03 102.14 323.02 102.14 323.02 3.45 345.03 3.45 345.03 58.85 364.33 32.51 389.57 32.51 364.48 65.45 393.68 102.14"/><path class="cls-7" d="M24.36,11.3a10.66,10.66,0,0,1-3.38,8,12.24,12.24,0,0,1-8.65,3.23c-3.6,0-6.75-.88-8.81-3.23C.73,16.14-.3,13.8.07,11.3c.44-3.23,1.18-6,3.45-8.07A12.52,12.52,0,0,1,12.33,0,12.24,12.24,0,0,1,21,3.23,10.59,10.59,0,0,1,24.36,11.3Z"/><rect class="cls-8" x="0.95" y="31.11" width="22.53" height="71.03"/></g></g></svg>